<?xml version="1.0" standalone="no"?><!DOCTYPE svg PUBLIC "-//W3C//DTD SVG 1.1//EN" "http://www.w3.org/Graphics/SVG/1.1/DTD/svg11.dtd"><svg t="1583320086847" class="icon" viewBox="0 0 1024 1024" version="1.1" xmlns="http://www.w3.org/2000/svg" p-id="3390" xmlns:xlink="http://www.w3.org/1999/xlink" width="200" height="200"><defs><style type="text/css"></style></defs><path d="M938.666667 725.333333a128 128 0 0 0-248.32-42.666666H640a85.333333 85.333333 0 0 1-85.333333-85.333334 128 128 0 0 0-33.28-85.333333A128 128 0 0 0 426.666667 469.333333H333.653333a128 128 0 1 0 0 85.333334H426.666667a42.666667 42.666667 0 0 1 42.666666 42.666666 170.666667 170.666667 0 0 0 170.666667 170.666667h50.346667A128 128 0 0 0 938.666667 725.333333zM213.333333 554.666667a42.666667 42.666667 0 1 1 42.666667-42.666667 42.666667 42.666667 0 0 1-42.666667 42.666667z m597.333334 213.333333a42.666667 42.666667 0 1 1 42.666666-42.666667 42.666667 42.666667 0 0 1-42.666666 42.666667z m-256-327.68V426.666667a85.333333 85.333333 0 0 1 85.333333-85.333334h50.346667a128 128 0 1 0 0-85.333333H640a170.666667 170.666667 0 0 0-168.106667 143.786667 203.52 203.52 0 0 1 82.773334 40.533333zM810.666667 256a42.666667 42.666667 0 1 1-42.666667 42.666667 42.666667 42.666667 0 0 1 42.666667-42.666667z" p-id="3391"></path></svg>