<?xml version="1.0" standalone="no"?><!DOCTYPE svg PUBLIC "-//W3C//DTD SVG 1.1//EN" "http://www.w3.org/Graphics/SVG/1.1/DTD/svg11.dtd"><svg t="1602491590168" class="icon" viewBox="0 0 1024 1024" version="1.1" xmlns="http://www.w3.org/2000/svg" p-id="4134" xmlns:xlink="http://www.w3.org/1999/xlink" width="200" height="200"><defs><style type="text/css"></style></defs><path d="M0 512A512 512 0 1 0 512 0 512 512 0 0 0 0 512z m106.666667 0a401.066667 401.066667 0 0 1 11.306666-95.36L213.333333 512l-21.333333 128 85.333333 85.333333v117.12A405.333333 405.333333 0 0 1 106.666667 512zM418.773333 117.546667A394.026667 394.026667 0 0 1 512 106.666667a409.6 409.6 0 0 1 103.04 13.226666L597.333333 149.333333l21.333334 21.333334h64l17.706666-17.706667a392.533333 392.533333 0 0 1 42.666667 26.026667L704 192l-42.666667 42.666667 42.666667 21.333333v21.333333h-42.666667v42.666667a123.093333 123.093333 0 0 0 64 21.333333c33.92 0 18.773333-46.72 42.666667-64a82.346667 82.346667 0 0 1 53.333333-13.44l13.866667 3.626667A403.2 403.2 0 0 1 896 381.866667v2.133333a156.16 156.16 0 0 0-85.333333-21.333333 315.946667 315.946667 0 0 0-106.666667 21.333333s-60.16 17.493333-64 64c-6.613333 80 21.333333 106.666667 21.333333 106.666667l106.666667 64v207.573333A406.4 406.4 0 0 1 381.013333 896L490.666667 640l-21.333334-106.666667s-85.333333-106.666667-128-106.666666-64 64-64 64l-42.666666-85.333334 128-85.333333 64-170.666667z" p-id="4135"></path></svg>